<?xml version="1.0" standalone="no"?>
<!DOCTYPE svg PUBLIC "-//W3C//DTD SVG 20010904//EN"
 "http://www.w3.org/TR/2001/REC-SVG-20010904/DTD/svg10.dtd">
<svg version="1.0" xmlns="http://www.w3.org/2000/svg"
 width="800.000000pt" height="800.000000pt" viewBox="0 0 800.000000 800.000000"
 preserveAspectRatio="xMidYMid meet">
<metadata>
Created by potrace 1.11, written by Peter Selinger 2001-2013
</metadata>
<g transform="translate(0.000000,800.000000) scale(0.100000,-0.100000)"
fill="#000000" stroke="none">
<path d="M4535 7007 c-11 -6 -29 -19 -39 -29 -11 -10 -24 -18 -28 -18 -5 0
-109 -61 -231 -136 -122 -74 -231 -141 -242 -147 -11 -7 -42 -26 -70 -43 -27
-17 -72 -44 -98 -60 -27 -16 -61 -36 -75 -45 -32 -19 -284 -174 -327 -200 -16
-10 -37 -22 -45 -26 -8 -3 -17 -9 -20 -12 -3 -3 -18 -14 -35 -23 -38 -22 -303
-183 -418 -254 -48 -30 -90 -54 -93 -54 -3 0 -10 -5 -17 -10 -21 -19 -519
-320 -528 -320 -5 0 -9 -4 -9 -9 0 -5 -10 -13 -22 -17 -13 -4 -25 -9 -28 -13
-8 -10 -110 -71 -119 -71 -4 0 -16 -8 -27 -18 -10 -9 -30 -23 -44 -29 -14 -7
-101 -60 -195 -117 -93 -58 -187 -116 -209 -128 -21 -13 -46 -27 -55 -33 -9
-5 -75 -46 -146 -89 -72 -43 -137 -85 -145 -92 -12 -12 -12 -14 3 -14 9 0 17
-3 17 -8 0 -4 27 -22 60 -40 52 -29 82 -52 66 -52 -7 0 -80 43 -86 50 -5 6
-88 50 -94 50 -2 0 -4 -629 -4 -1397 l0 -1397 -54 -52 c-229 -224 -1109 -1114
-1102 -1115 5 0 1762 -1 3905 -2 l3895 -2 3 25 c1 14 2 32 2 40 0 8 -1 31 0
50 1 42 1 32 0 150 0 52 0 104 0 115 -1 11 -1 36 0 55 1 42 1 32 0 150 0 52 0
104 0 115 -1 11 -1 36 0 55 1 42 1 32 0 150 0 52 0 104 0 115 -1 11 -1 36 0
55 1 42 1 32 0 150 0 52 0 104 0 115 -1 11 -1 36 0 55 1 41 1 29 0 155 0 55 0
109 -1 120 -1 11 -1 27 -1 35 0 8 0 76 0 150 0 74 0 141 0 148 0 6 0 32 0 57
0 49 1 69 2 88 1 18 0 299 -1 322 -1 11 -1 27 -1 35 0 8 0 112 0 230 0 118 0
221 0 228 0 6 0 32 0 57 0 49 1 69 2 88 1 18 0 299 -1 322 -1 11 -1 27 -1 35
0 8 0 112 0 230 -1 118 0 229 0 246 1 26 -6 35 -48 62 -27 18 -54 32 -60 32
-6 0 -11 5 -11 10 0 6 -5 10 -11 10 -6 0 -29 12 -52 28 -23 15 -51 32 -62 39
-70 41 -383 230 -560 338 -115 70 -286 174 -380 230 -93 56 -201 121 -238 144
-38 23 -86 52 -107 64 -20 12 -96 58 -168 102 -73 44 -140 85 -149 90 -10 6
-52 31 -94 58 -42 26 -81 47 -87 47 -7 0 -12 3 -12 8 0 4 -21 18 -47 32 -27
13 -50 27 -53 31 -3 3 -81 52 -175 107 -93 56 -175 106 -182 112 -7 5 -14 10
-17 10 -3 0 -25 14 -49 30 -25 17 -48 30 -52 30 -4 0 -19 8 -33 19 -15 10 -45
29 -68 42 -22 13 -99 59 -170 102 -71 43 -138 84 -149 90 -11 7 -39 24 -62 40
-23 15 -46 27 -52 27 -6 0 -11 5 -11 10 0 6 -6 10 -14 10 -7 0 -24 8 -37 18
-13 10 -44 30 -69 44 -37 21 -49 24 -65 15z m-2995 -2172 c8 -7 51 -33 95 -59
99 -58 109 -64 165 -100 25 -16 59 -37 75 -46 63 -36 242 -144 280 -170 22
-15 59 -37 82 -50 24 -13 41 -25 39 -27 -3 -3 -63 31 -136 77 -8 5 -85 51
-170 102 -85 50 -157 94 -160 97 -3 3 -25 17 -50 30 -25 13 -52 29 -60 36 -18
15 -128 77 -152 87 -10 4 -18 12 -18 18 0 6 -4 8 -10 5 -5 -3 -10 -3 -10 2 0
4 -18 17 -40 27 -22 11 -40 23 -40 28 0 9 79 -33 110 -57z m834 -507 c66 -42
85 -58 46 -38 -41 22 -130 80 -130 86 0 6 3 4 84 -48z m159 -95 c9 -3 17 -10
17 -15 0 -10 -43 13 -81 44 -20 17 -19 17 11 -2 19 -12 43 -24 53 -27z m67
-44 c17 -13 18 -17 5 -10 -33 17 -51 31 -40 31 6 0 21 -10 35 -21z m80 -49 c8
-5 11 -10 5 -10 -5 0 -21 10 -35 21 -24 20 -5 13 30 -11z m66 -41 c3 -6 -5 -3
-20 6 -14 10 -26 19 -26 22 0 7 39 -17 46 -28z m45 -26 c12 -16 12 -17 -2 -6
-9 7 -20 9 -24 5 -5 -4 -5 -1 -1 6 9 16 11 15 27 -5z m59 -39 c0 -2 -9 0 -20
6 -11 6 -20 13 -20 16 0 2 9 0 20 -6 11 -6 20 -13 20 -16z m50 -30 c0 -2 -9 0
-20 6 -11 6 -20 13 -20 16 0 2 9 0 20 -6 11 -6 20 -13 20 -16z m61 -31 c13
-17 13 -17 -6 -3 -11 8 -22 16 -24 17 -2 2 0 3 6 3 6 0 17 -8 24 -17z m84 -53
c3 -5 1 -10 -4 -10 -6 0 -11 5 -11 10 0 6 2 10 4 10 3 0 8 -4 11 -10z m36 -27
c13 -16 12 -17 -3 -4 -17 13 -22 21 -14 21 2 0 10 -8 17 -17z m94 -53 c10 -11
16 -20 13 -20 -3 0 -13 9 -23 20 -10 11 -16 20 -13 20 3 0 13 -9 23 -20z m200
-120 c3 -6 -1 -7 -9 -4 -18 7 -21 14 -7 14 6 0 13 -4 16 -10z"/>
</g>
</svg>
